<svg xmlns="http://www.w3.org/2000/svg" xmlns:xlink="http://www.w3.org/1999/xlink" width="1200" zoomAndPan="magnify" viewBox="0 0 900 299.999988" height="400" preserveAspectRatio="xMidYMid meet" version="1.0"><defs><g/><clipPath id="abe6b40636"><path d="M 7.355469 130.183594 L 662.976562 130.183594 L 662.976562 156.171875 L 7.355469 156.171875 Z M 7.355469 130.183594 " clip-rule="nonzero"/></clipPath><clipPath id="76cb1779da"><rect x="0" width="702" y="0" height="252"/></clipPath></defs><g transform="matrix(1, 0, 0, 1, 115, 22)"><g clip-path="url(#76cb1779da)"><g clip-path="url(#abe6b40636)"><path fill="#ac7e54" d="M 376.953125 152.464844 L 383.410156 146.011719 C 476.734375 145.78125 569.972656 144.878906 662.640625 143.285156 C 569.972656 141.691406 476.734375 140.789062 383.410156 140.558594 L 376.953125 134.105469 L 370.53125 140.53125 C 362.089844 140.515625 353.648438 140.507812 345.210938 140.503906 L 335 130.292969 L 324.789062 140.503906 C 316.347656 140.511719 307.910156 140.515625 299.472656 140.535156 L 293.042969 134.105469 L 286.585938 140.5625 C 193.265625 140.800781 100.023438 141.707031 7.355469 143.285156 C 100.023438 144.867188 193.265625 145.773438 286.585938 146.007812 L 293.042969 152.464844 L 299.472656 146.039062 C 307.910156 146.054688 316.347656 146.0625 324.789062 146.066406 L 335 156.277344 L 345.210938 146.066406 C 353.648438 146.0625 362.089844 146.054688 370.53125 146.039062 Z M 376.953125 152.464844 " fill-opacity="1" fill-rule="nonzero"/></g><g fill="#ac7e54" fill-opacity="1"><g transform="translate(20.734955, 86.439674)"><g><path d="M 81.796875 9.140625 C 82.765625 9.703125 83.859375 10.226562 85.078125 10.71875 C 86.304688 11.21875 87.488281 11.566406 88.625 11.765625 C 89.769531 11.972656 91.023438 12.078125 92.390625 12.078125 C 93.765625 12.078125 95.179688 11.898438 96.640625 11.546875 L 96.984375 12.421875 C 93.722656 14.003906 90.425781 14.796875 87.09375 14.796875 C 79.457031 14.796875 71.671875 10.5625 63.734375 2.09375 L 22.234375 -41.921875 L 22.234375 -6.125 C 22.234375 -4.664062 22.757812 -3.425781 23.8125 -2.40625 C 24.863281 -1.382812 26.117188 -0.875 27.578125 -0.875 L 29.234375 -0.875 L 29.234375 0 L 2.71875 0 L 2.71875 -0.875 L 4.296875 -0.875 C 5.816406 -0.875 7.097656 -1.382812 8.140625 -2.40625 C 9.191406 -3.425781 9.71875 -4.695312 9.71875 -6.21875 L 9.71875 -55.3125 C 6.863281 -58.582031 4.707031 -60.875 3.25 -62.1875 C 1.789062 -63.5 0.492188 -64.59375 -0.640625 -65.46875 C -1.785156 -66.34375 -2.882812 -67.070312 -3.9375 -67.65625 C -6.382812 -69.0625 -8.351562 -69.878906 -9.84375 -70.109375 C -11.332031 -70.347656 -12.734375 -70.46875 -14.046875 -70.46875 C -15.359375 -70.46875 -16.769531 -70.203125 -18.28125 -69.671875 L -18.640625 -70.546875 C -15.429688 -72.410156 -12.132812 -73.34375 -8.75 -73.34375 C -1.394531 -73.34375 6.394531 -68.96875 14.625 -60.21875 L 53.75 -18.640625 L 53.75 -55.0625 C 53.6875 -56.570312 53.128906 -57.835938 52.078125 -58.859375 C 51.035156 -59.878906 49.785156 -60.390625 48.328125 -60.390625 L 46.75 -60.390625 L 46.75 -61.265625 L 73.265625 -61.265625 L 73.265625 -60.390625 L 71.609375 -60.390625 C 70.148438 -60.390625 68.894531 -59.878906 67.84375 -58.859375 C 66.789062 -57.835938 66.238281 -56.597656 66.1875 -55.140625 L 66.1875 -5.34375 L 67.578125 -3.9375 C 67.929688 -3.582031 68.472656 -2.984375 69.203125 -2.140625 C 69.929688 -1.296875 70.585938 -0.566406 71.171875 0.046875 C 71.753906 0.660156 72.5 1.429688 73.40625 2.359375 C 74.3125 3.296875 75.15625 4.113281 75.9375 4.8125 C 76.726562 5.507812 77.660156 6.265625 78.734375 7.078125 C 79.816406 7.898438 80.835938 8.585938 81.796875 9.140625 Z M 81.796875 9.140625 "/></g></g></g><g fill="#ac7e54" fill-opacity="1"><g transform="translate(148.606917, 86.439674)"><g><path d="M 84.5625 16.015625 C 78.195312 19.222656 71.75 19.75 65.21875 17.59375 C 58.269531 15.375 52.285156 10.644531 47.265625 3.40625 C 44.585938 -0.4375 42.285156 -4.898438 40.359375 -9.984375 L 37.5625 -17.421875 L 16.90625 -17.421875 L 12.265625 -6.390625 C 11.972656 -5.628906 11.828125 -5.015625 11.828125 -4.546875 C 11.828125 -4.078125 11.925781 -3.566406 12.125 -3.015625 C 12.332031 -2.460938 12.769531 -1.96875 13.4375 -1.53125 C 14.113281 -1.09375 14.859375 -0.875 15.671875 -0.875 L 16.375 -0.875 L 16.375 0 L -2.359375 0 L -2.359375 -0.875 L -1.5625 -0.875 C -0.226562 -0.875 1.09375 -1.265625 2.40625 -2.046875 C 3.71875 -2.835938 4.816406 -4.023438 5.703125 -5.609375 L 25.21875 -50.15625 C 22.9375 -55.289062 20.515625 -58.820312 17.953125 -60.75 C 15.796875 -62.382812 13.738281 -63.203125 11.78125 -63.203125 C 9.820312 -63.203125 8 -62.910156 6.3125 -62.328125 L 6.140625 -63.203125 C 10.335938 -65.359375 14.363281 -66.4375 18.21875 -66.4375 C 23 -66.4375 27.285156 -64.566406 31.078125 -60.828125 C 34.816406 -57.148438 38.113281 -51.84375 40.96875 -44.90625 L 53.65625 -13.5625 C 58.445312 -1.71875 63.351562 6.421875 68.375 10.859375 C 70.414062 12.660156 72.515625 13.910156 74.671875 14.609375 C 76.828125 15.316406 78.648438 15.671875 80.140625 15.671875 C 81.628906 15.671875 83.070312 15.492188 84.46875 15.140625 Z M 18.390625 -21.1875 L 36.25 -21.1875 L 30.109375 -37.375 C 29.816406 -38.1875 29.410156 -39.304688 28.890625 -40.734375 C 28.367188 -42.171875 28.019531 -43.179688 27.84375 -43.765625 Z M 18.390625 -21.1875 "/></g></g></g><g fill="#ac7e54" fill-opacity="1"><g transform="translate(254.773209, 86.439674)"><g><path d="M 94.546875 -81.75 C 97.222656 -82.445312 99.40625 -82.796875 101.09375 -82.796875 C 102.789062 -82.796875 104.132812 -82.738281 105.125 -82.625 L 105.125 -81.75 C 97.488281 -81.34375 91.363281 -77.84375 86.75 -71.25 C 84.351562 -67.863281 82.425781 -63.925781 80.96875 -59.4375 L 64.515625 -8.140625 C 63.523438 -4.929688 63.03125 -1.957031 63.03125 0.78125 C 63.03125 1.070312 63.03125 1.335938 63.03125 1.578125 L 62.15625 1.578125 L 43.15625 -40.609375 L 27.578125 -3.59375 C 26.003906 0.257812 23.695312 3.992188 20.65625 7.609375 C 17.394531 11.460938 13.429688 14.003906 8.765625 15.234375 C 7.648438 15.578125 6.476562 15.75 5.25 15.75 C 4.03125 15.75 2.71875 15.546875 1.3125 15.140625 L 1.40625 14.265625 C 3.5625 14.148438 5.644531 13.566406 7.65625 12.515625 C 9.675781 11.460938 11.441406 10.191406 12.953125 8.703125 C 14.472656 7.222656 15.9375 5.488281 17.34375 3.5 C 19.613281 0.289062 21.535156 -3.207031 23.109375 -7 L 5.34375 -55.3125 C 4.582031 -57.007812 3.5 -58.28125 2.09375 -59.125 C 0.695312 -59.96875 -0.726562 -60.390625 -2.1875 -60.390625 L -2.875 -60.390625 L -2.875 -61.265625 L 23.8125 -61.265625 L 23.8125 -60.390625 L 23.03125 -60.390625 C 21.800781 -60.390625 20.878906 -59.992188 20.265625 -59.203125 C 19.648438 -58.421875 19.34375 -57.679688 19.34375 -56.984375 C 19.34375 -56.285156 19.460938 -55.613281 19.703125 -54.96875 L 30.46875 -24.59375 L 46.3125 -62.671875 L 47.09375 -62.578125 L 64.515625 -24.15625 L 74.578125 -59.4375 C 76.035156 -64.507812 78.34375 -69 81.5 -72.90625 C 85.175781 -77.519531 89.523438 -80.46875 94.546875 -81.75 Z M 94.546875 -81.75 "/></g></g></g><g fill="#ac7e54" fill-opacity="1"><g transform="translate(383.869828, 86.439674)"><g><path d="M 84.5625 16.015625 C 78.195312 19.222656 71.75 19.75 65.21875 17.59375 C 58.269531 15.375 52.285156 10.644531 47.265625 3.40625 C 44.585938 -0.4375 42.285156 -4.898438 40.359375 -9.984375 L 37.5625 -17.421875 L 16.90625 -17.421875 L 12.265625 -6.390625 C 11.972656 -5.628906 11.828125 -5.015625 11.828125 -4.546875 C 11.828125 -4.078125 11.925781 -3.566406 12.125 -3.015625 C 12.332031 -2.460938 12.769531 -1.96875 13.4375 -1.53125 C 14.113281 -1.09375 14.859375 -0.875 15.671875 -0.875 L 16.375 -0.875 L 16.375 0 L -2.359375 0 L -2.359375 -0.875 L -1.5625 -0.875 C -0.226562 -0.875 1.09375 -1.265625 2.40625 -2.046875 C 3.71875 -2.835938 4.816406 -4.023438 5.703125 -5.609375 L 25.21875 -50.15625 C 22.9375 -55.289062 20.515625 -58.820312 17.953125 -60.75 C 15.796875 -62.382812 13.738281 -63.203125 11.78125 -63.203125 C 9.820312 -63.203125 8 -62.910156 6.3125 -62.328125 L 6.140625 -63.203125 C 10.335938 -65.359375 14.363281 -66.4375 18.21875 -66.4375 C 23 -66.4375 27.285156 -64.566406 31.078125 -60.828125 C 34.816406 -57.148438 38.113281 -51.84375 40.96875 -44.90625 L 53.65625 -13.5625 C 58.445312 -1.71875 63.351562 6.421875 68.375 10.859375 C 70.414062 12.660156 72.515625 13.910156 74.671875 14.609375 C 76.828125 15.316406 78.648438 15.671875 80.140625 15.671875 C 81.628906 15.671875 83.070312 15.492188 84.46875 15.140625 Z M 18.390625 -21.1875 L 36.25 -21.1875 L 30.109375 -37.375 C 29.816406 -38.1875 29.410156 -39.304688 28.890625 -40.734375 C 28.367188 -42.171875 28.019531 -43.179688 27.84375 -43.765625 Z M 18.390625 -21.1875 "/></g></g></g><g fill="#ac7e54" fill-opacity="1"><g transform="translate(497.738597, 86.439674)"><g><path d="M 49.546875 -46.21875 C 49.546875 -43.476562 48.859375 -41.023438 47.484375 -38.859375 C 46.117188 -36.703125 44.359375 -35.21875 42.203125 -34.40625 C 48.960938 -34.050781 53.890625 -31.394531 56.984375 -26.4375 C 58.566406 -23.925781 59.359375 -20.832031 59.359375 -17.15625 C 59.359375 -13.476562 57.941406 -10.117188 55.109375 -7.078125 C 52.273438 -4.046875 48.671875 -1.890625 44.296875 -0.609375 C 39.921875 0.671875 35.3125 1.3125 30.46875 1.3125 C 18.382812 1.3125 9.75 -1.894531 4.5625 -8.3125 C 1.226562 -12.394531 -0.4375 -17.910156 -0.4375 -24.859375 C -0.4375 -26.023438 -0.375 -27.191406 -0.25 -28.359375 L 0.625 -28.453125 C 1.03125 -18.410156 4.617188 -11.234375 11.390625 -6.921875 L 11.390625 -54.96875 C 11.328125 -57.125 10.363281 -58.703125 8.5 -59.703125 C 7.675781 -60.160156 6.769531 -60.390625 5.78125 -60.390625 L 4.640625 -60.390625 L 4.640625 -61.265625 L 26.875 -61.265625 C 33.351562 -61.265625 38.75 -59.96875 43.0625 -57.375 C 47.382812 -54.78125 49.546875 -51.0625 49.546875 -46.21875 Z M 26.96875 -2.796875 C 32.394531 -2.796875 36.640625 -4.222656 39.703125 -7.078125 C 42.765625 -9.941406 44.296875 -13.707031 44.296875 -18.375 C 44.296875 -21.300781 43.753906 -23.769531 42.671875 -25.78125 C 41.597656 -27.789062 40.1875 -29.289062 38.4375 -30.28125 C 35.226562 -32.207031 31.578125 -33.171875 27.484375 -33.171875 L 27.484375 -33.96875 C 29.359375 -33.96875 30.9375 -34.632812 32.21875 -35.96875 C 34.4375 -38.3125 35.546875 -41.492188 35.546875 -45.515625 C 35.546875 -49.546875 34.65625 -52.519531 32.875 -54.4375 C 31.09375 -56.363281 28.304688 -57.390625 24.515625 -57.515625 L 24.515625 -2.890625 C 25.328125 -2.828125 26.144531 -2.796875 26.96875 -2.796875 Z M 26.96875 -2.796875 "/></g></g></g><g fill="#ac7e54" fill-opacity="1"><g transform="translate(609.331754, 86.439674)"><g><path d="M 35.375 -0.875 L 36.5 -0.875 L 36.5 0 L 9.890625 0 L 9.890625 -0.875 L 11.03125 -0.875 C 12.550781 -0.875 13.847656 -1.410156 14.921875 -2.484375 C 16.003906 -3.566406 16.578125 -4.867188 16.640625 -6.390625 L 16.640625 -57.6875 L 8.328125 -57.328125 C 2.835938 -57.097656 0.09375 -55.054688 0.09375 -51.203125 C 0.09375 -49.628906 0.628906 -48.300781 1.703125 -47.21875 C 2.785156 -46.144531 4.289062 -45.609375 6.21875 -45.609375 C 6.394531 -45.609375 6.570312 -45.609375 6.75 -45.609375 L 6.75 -45.078125 C 5.582031 -44.671875 4.585938 -44.46875 3.765625 -44.46875 C 1.140625 -44.46875 -0.867188 -45.398438 -2.265625 -47.265625 C -3.253906 -48.546875 -3.75 -50.003906 -3.75 -51.640625 C -3.75 -54.210938 -2.742188 -56.328125 -0.734375 -57.984375 C 1.273438 -59.648438 4.378906 -60.628906 8.578125 -60.921875 C 9.335938 -60.984375 11.789062 -61.097656 15.9375 -61.265625 C 25.382812 -61.617188 32.238281 -62.203125 36.5 -63.015625 L 36.6875 -62.140625 C 34.175781 -61.734375 32.410156 -60.890625 31.390625 -59.609375 C 30.367188 -58.328125 29.828125 -56.429688 29.765625 -53.921875 L 29.765625 -6.390625 C 29.828125 -4.867188 30.394531 -3.566406 31.46875 -2.484375 C 32.550781 -1.410156 33.851562 -0.875 35.375 -0.875 Z M 35.375 -0.875 "/></g></g></g><g fill="#ac7e54" fill-opacity="1"><g transform="translate(92.402168, 227.898608)"><g><path d="M 28.125 0.828125 C 20.226562 0.804688 14.023438 -1.1875 9.515625 -5.15625 C 5.015625 -9.132812 2.765625 -14.582031 2.765625 -21.5 C 2.765625 -28.414062 4.992188 -33.867188 9.453125 -37.859375 C 13.921875 -41.859375 20.046875 -43.859375 27.828125 -43.859375 C 33.765625 -43.859375 38.863281 -42.75 43.125 -40.53125 L 43.234375 -29.96875 L 42.75 -29.96875 C 40.65625 -37.507812 35.882812 -41.28125 28.4375 -41.28125 C 23.601562 -41.28125 19.785156 -39.523438 16.984375 -36.015625 C 14.179688 -32.515625 12.78125 -27.734375 12.78125 -21.671875 C 12.78125 -15.617188 14.117188 -10.8125 16.796875 -7.25 C 19.484375 -3.6875 23.117188 -1.84375 27.703125 -1.71875 C 32.453125 -1.71875 36.078125 -2.90625 38.578125 -5.28125 C 41.109375 -7.738281 42.867188 -11.957031 43.859375 -17.9375 L 44.34375 -17.9375 L 44.953125 -7.375 C 41.640625 -1.882812 36.03125 0.847656 28.125 0.828125 Z M 28.125 0.828125 "/></g></g></g><g fill="#ac7e54" fill-opacity="1"><g transform="translate(148.227095, 227.898608)"><g><path d="M 32.484375 -0.609375 C 33.554688 -0.609375 34.378906 -0.875 34.953125 -1.40625 C 35.890625 -2.351562 36.378906 -3.359375 36.421875 -4.421875 L 36.421875 -20.078125 L 16.515625 -20.078125 L 16.515625 -4.484375 C 16.515625 -3.421875 16.90625 -2.507812 17.6875 -1.75 C 18.46875 -0.988281 19.390625 -0.609375 20.453125 -0.609375 L 21.1875 -0.609375 L 21.25 0 L 2.578125 0 L 2.578125 -0.609375 L 3.375 -0.609375 C 4.4375 -0.609375 5.347656 -0.988281 6.109375 -1.75 C 6.867188 -2.507812 7.269531 -3.421875 7.3125 -4.484375 L 7.3125 -38.515625 C 7.269531 -39.578125 6.867188 -40.484375 6.109375 -41.234375 C 5.347656 -41.992188 4.4375 -42.375 3.375 -42.375 L 2.578125 -42.375 L 2.578125 -43 L 21.25 -43 L 21.1875 -42.375 L 20.453125 -42.375 C 19.390625 -42.375 18.46875 -41.992188 17.6875 -41.234375 C 16.90625 -40.484375 16.515625 -39.578125 16.515625 -38.515625 L 16.515625 -22.71875 L 36.421875 -22.71875 L 36.421875 -38.515625 C 36.378906 -39.578125 35.976562 -40.484375 35.21875 -41.234375 C 34.46875 -41.992188 33.554688 -42.375 32.484375 -42.375 L 31.6875 -42.375 L 31.6875 -43 L 50.359375 -43 L 50.359375 -42.375 L 49.5625 -42.375 C 48.5 -42.375 47.578125 -41.992188 46.796875 -41.234375 C 46.023438 -40.484375 45.640625 -39.578125 45.640625 -38.515625 L 45.640625 -4.484375 C 45.640625 -3.421875 46.023438 -2.507812 46.796875 -1.75 C 47.578125 -0.988281 48.5 -0.609375 49.5625 -0.609375 L 50.359375 -0.609375 L 50.359375 0 L 31.6875 0 L 31.6875 -0.609375 Z M 32.484375 -0.609375 "/></g></g></g><g fill="#ac7e54" fill-opacity="1"><g transform="translate(208.842151, 227.898608)"><g><path d="M 45.328125 -0.609375 L 45.890625 -0.609375 L 45.890625 0 L 26.296875 0 L 26.296875 -0.609375 L 26.84375 -0.609375 C 27.738281 -0.609375 28.398438 -0.882812 28.828125 -1.4375 C 29.265625 -1.988281 29.484375 -2.507812 29.484375 -3 C 29.484375 -3.5 29.378906 -3.992188 29.171875 -4.484375 L 26.171875 -12.03125 L 11.796875 -12.03125 L 8.59375 -4.484375 C 8.394531 -3.953125 8.296875 -3.445312 8.296875 -2.96875 C 8.296875 -2.5 8.519531 -1.988281 8.96875 -1.4375 C 9.414062 -0.882812 10.09375 -0.609375 11 -0.609375 L 11.484375 -0.609375 L 11.484375 0 L -1.65625 0 L -1.65625 -0.609375 L -1.109375 -0.609375 C -0.160156 -0.609375 0.78125 -0.894531 1.71875 -1.46875 C 2.664062 -2.039062 3.445312 -2.898438 4.0625 -4.046875 L 18.25 -36.171875 C 20.164062 -40.234375 21.1875 -42.914062 21.3125 -44.21875 L 21.875 -44.21875 L 40.109375 -4.171875 C 40.722656 -2.984375 41.5 -2.09375 42.4375 -1.5 C 43.382812 -0.90625 44.347656 -0.609375 45.328125 -0.609375 Z M 12.84375 -14.625 L 25.125 -14.625 L 19.171875 -29.734375 Z M 12.84375 -14.625 "/></g></g></g><g fill="#ac7e54" fill-opacity="1"><g transform="translate(260.920972, 227.898608)"><g><path d="M 3.375 -0.609375 C 4.4375 -0.609375 5.347656 -0.988281 6.109375 -1.75 C 6.867188 -2.507812 7.269531 -3.421875 7.3125 -4.484375 L 7.3125 -38.578125 C 7.269531 -39.640625 6.867188 -40.535156 6.109375 -41.265625 C 5.347656 -42.003906 4.4375 -42.375 3.375 -42.375 L 2.578125 -42.375 L 2.578125 -43 L 21.25 -43 L 21.1875 -42.375 L 20.453125 -42.375 C 19.390625 -42.375 18.46875 -42.003906 17.6875 -41.265625 C 16.90625 -40.535156 16.515625 -39.640625 16.515625 -38.578125 L 16.515625 -4.484375 C 16.515625 -3.421875 16.90625 -2.507812 17.6875 -1.75 C 18.46875 -0.988281 19.390625 -0.609375 20.453125 -0.609375 L 21.1875 -0.609375 L 21.25 0 L 2.578125 0 L 2.578125 -0.609375 Z M 3.375 -0.609375 "/></g></g></g><g fill="#ac7e54" fill-opacity="1"><g transform="translate(292.733799, 227.898608)"><g/></g></g><g fill="#ac7e54" fill-opacity="1"><g transform="translate(316.19458, 227.898608)"><g><path d="M 32.484375 -0.609375 C 33.554688 -0.609375 34.378906 -0.875 34.953125 -1.40625 C 35.890625 -2.351562 36.378906 -3.359375 36.421875 -4.421875 L 36.421875 -20.078125 L 16.515625 -20.078125 L 16.515625 -4.484375 C 16.515625 -3.421875 16.90625 -2.507812 17.6875 -1.75 C 18.46875 -0.988281 19.390625 -0.609375 20.453125 -0.609375 L 21.1875 -0.609375 L 21.25 0 L 2.578125 0 L 2.578125 -0.609375 L 3.375 -0.609375 C 4.4375 -0.609375 5.347656 -0.988281 6.109375 -1.75 C 6.867188 -2.507812 7.269531 -3.421875 7.3125 -4.484375 L 7.3125 -38.515625 C 7.269531 -39.578125 6.867188 -40.484375 6.109375 -41.234375 C 5.347656 -41.992188 4.4375 -42.375 3.375 -42.375 L 2.578125 -42.375 L 2.578125 -43 L 21.25 -43 L 21.1875 -42.375 L 20.453125 -42.375 C 19.390625 -42.375 18.46875 -41.992188 17.6875 -41.234375 C 16.90625 -40.484375 16.515625 -39.578125 16.515625 -38.515625 L 16.515625 -22.71875 L 36.421875 -22.71875 L 36.421875 -38.515625 C 36.378906 -39.578125 35.976562 -40.484375 35.21875 -41.234375 C 34.46875 -41.992188 33.554688 -42.375 32.484375 -42.375 L 31.6875 -42.375 L 31.6875 -43 L 50.359375 -43 L 50.359375 -42.375 L 49.5625 -42.375 C 48.5 -42.375 47.578125 -41.992188 46.796875 -41.234375 C 46.023438 -40.484375 45.640625 -39.578125 45.640625 -38.515625 L 45.640625 -4.484375 C 45.640625 -3.421875 46.023438 -2.507812 46.796875 -1.75 C 47.578125 -0.988281 48.5 -0.609375 49.5625 -0.609375 L 50.359375 -0.609375 L 50.359375 0 L 31.6875 0 L 31.6875 -0.609375 Z M 32.484375 -0.609375 "/></g></g></g><g fill="#ac7e54" fill-opacity="1"><g transform="translate(375.949742, 227.898608)"><g><path d="M 9.546875 -37.828125 C 13.910156 -41.847656 19.785156 -43.859375 27.171875 -43.859375 C 34.566406 -43.859375 40.441406 -41.847656 44.796875 -37.828125 C 49.160156 -33.816406 51.34375 -28.367188 51.34375 -21.484375 C 51.34375 -14.609375 49.160156 -9.164062 44.796875 -5.15625 C 40.441406 -1.144531 34.566406 0.859375 27.171875 0.859375 C 19.785156 0.859375 13.910156 -1.144531 9.546875 -5.15625 C 5.191406 -9.164062 3.015625 -14.609375 3.015625 -21.484375 C 3.015625 -28.367188 5.191406 -33.816406 9.546875 -37.828125 Z M 16.859375 -7.03125 C 19.378906 -3.488281 22.804688 -1.71875 27.140625 -1.71875 C 31.484375 -1.71875 34.925781 -3.488281 37.46875 -7.03125 C 40.007812 -10.570312 41.28125 -15.394531 41.28125 -21.5 C 41.28125 -27.601562 40.007812 -32.425781 37.46875 -35.96875 C 34.925781 -39.507812 31.484375 -41.28125 27.140625 -41.28125 C 22.804688 -41.28125 19.378906 -39.507812 16.859375 -35.96875 C 14.335938 -32.425781 13.078125 -27.601562 13.078125 -21.5 C 13.078125 -15.394531 14.335938 -10.570312 16.859375 -7.03125 Z M 16.859375 -7.03125 "/></g></g></g><g fill="#ac7e54" fill-opacity="1"><g transform="translate(437.056029, 227.898608)"><g><path d="M 48.515625 -42.375 L 47.484375 -42.375 C 46.617188 -42.375 45.878906 -42.097656 45.265625 -41.546875 C 44.648438 -40.992188 44.320312 -40.3125 44.28125 -39.5 L 44.28125 -15.546875 C 44.28125 -10.503906 42.703125 -6.507812 39.546875 -3.5625 C 36.398438 -0.613281 32.082031 0.859375 26.59375 0.859375 C 20.125 0.859375 15.171875 -0.582031 11.734375 -3.46875 C 8.296875 -6.351562 6.578125 -10.359375 6.578125 -15.484375 L 6.578125 -39.3125 C 6.535156 -40.539062 5.976562 -41.441406 4.90625 -42.015625 C 4.414062 -42.253906 3.882812 -42.375 3.3125 -42.375 L 2.328125 -42.375 L 2.328125 -43 L 20.03125 -43 L 20.03125 -42.375 L 19.046875 -42.375 C 18.140625 -42.375 17.378906 -42.097656 16.765625 -41.546875 C 16.148438 -40.992188 15.820312 -40.289062 15.78125 -39.4375 L 15.78125 -15.96875 C 15.78125 -11.625 16.84375 -8.179688 18.96875 -5.640625 C 21.101562 -3.109375 24.035156 -1.84375 27.765625 -1.84375 C 31.492188 -1.84375 34.441406 -3.039062 36.609375 -5.4375 C 38.773438 -7.832031 39.878906 -11.078125 39.921875 -15.171875 L 39.921875 -39.4375 C 39.835938 -40.625 39.285156 -41.484375 38.265625 -42.015625 C 37.773438 -42.253906 37.242188 -42.375 36.671875 -42.375 L 35.6875 -42.375 L 35.6875 -43 L 48.515625 -43 Z M 48.515625 -42.375 "/></g></g></g><g fill="#ac7e54" fill-opacity="1"><g transform="translate(495.583131, 227.898608)"><g><path d="M 3.078125 -5.71875 C 3.078125 -8.664062 3.707031 -11.179688 4.96875 -13.265625 L 5.53125 -13.265625 C 5.488281 -12.941406 5.46875 -12.613281 5.46875 -12.28125 C 5.46875 -9.457031 6.476562 -6.988281 8.5 -4.875 C 10.53125 -2.769531 13.304688 -1.71875 16.828125 -1.71875 C 19.566406 -1.71875 21.703125 -2.375 23.234375 -3.6875 C 24.773438 -5 25.546875 -6.65625 25.546875 -8.65625 C 25.546875 -9.84375 25.164062 -10.90625 24.40625 -11.84375 C 23.65625 -12.789062 22.398438 -13.835938 20.640625 -14.984375 L 9.953125 -22.046875 C 5.984375 -24.710938 4 -27.988281 4 -31.875 C 4 -32.28125 4.035156 -32.691406 4.109375 -33.109375 C 4.359375 -36.335938 5.617188 -38.9375 7.890625 -40.90625 C 10.160156 -42.875 13.203125 -43.859375 17.015625 -43.859375 C 19.265625 -43.859375 22.050781 -43.648438 25.375 -43.234375 L 29.234375 -43.234375 L 28.4375 -34.21875 L 27.828125 -34.21875 C 27.828125 -36.34375 27.035156 -38.050781 25.453125 -39.34375 C 23.878906 -40.632812 21.78125 -41.28125 19.15625 -41.28125 C 15.96875 -41.28125 13.65625 -40.296875 12.21875 -38.328125 C 11.488281 -37.390625 11.125 -36.445312 11.125 -35.5 C 11.125 -34.5625 11.304688 -33.765625 11.671875 -33.109375 C 12.242188 -32.046875 13.492188 -30.898438 15.421875 -29.671875 L 27.15625 -22.046875 C 30.832031 -19.628906 32.671875 -16.476562 32.671875 -12.59375 C 32.671875 -8.25 31.1875 -4.921875 28.21875 -2.609375 C 25.25 -0.296875 21.3125 0.859375 16.40625 0.859375 C 13.613281 0.859375 11.039062 0.519531 8.6875 -0.15625 C 6.332031 -0.832031 4.601562 -1.742188 3.5 -2.890625 C 3.21875 -3.660156 3.078125 -4.601562 3.078125 -5.71875 Z M 3.078125 -5.71875 "/></g></g></g><g fill="#ac7e54" fill-opacity="1"><g transform="translate(538.818547, 227.898608)"><g><path d="M 3.375 -0.609375 C 4.4375 -0.609375 5.347656 -0.988281 6.109375 -1.75 C 6.867188 -2.507812 7.269531 -3.421875 7.3125 -4.484375 L 7.3125 -38.703125 C 7.226562 -39.765625 6.921875 -40.539062 6.390625 -41.03125 C 5.398438 -41.925781 4.394531 -42.375 3.375 -42.375 L 2.578125 -42.375 L 2.578125 -43 L 26.109375 -43 C 28.109375 -43 29.765625 -43.148438 31.078125 -43.453125 C 32.390625 -43.765625 33.1875 -43.976562 33.46875 -44.09375 L 33.46875 -33.359375 L 32.859375 -33.40625 L 32.859375 -34.09375 C 32.859375 -36.625 31.914062 -38.425781 30.03125 -39.5 C 29.132812 -40.03125 28.070312 -40.316406 26.84375 -40.359375 L 16.515625 -40.359375 L 16.515625 -22.484375 L 24.625 -22.484375 C 26.144531 -22.523438 27.394531 -23.046875 28.375 -24.046875 C 29.351562 -25.046875 29.84375 -26.285156 29.84375 -27.765625 L 29.84375 -28.3125 L 30.46875 -28.3125 L 30.46875 -14.125 L 29.84375 -14.125 L 29.84375 -14.625 C 29.84375 -16.132812 29.363281 -17.378906 28.40625 -18.359375 C 27.445312 -19.347656 26.226562 -19.863281 24.75 -19.90625 L 16.515625 -19.90625 L 16.515625 -2.640625 L 24.5625 -2.640625 C 27.550781 -2.640625 30.0625 -3.5 32.09375 -5.21875 C 34.125 -6.9375 35.628906 -9.375 36.609375 -12.53125 L 37.21875 -12.53125 L 34.390625 0 L 2.578125 0 L 2.578125 -0.609375 Z M 3.375 -0.609375 "/></g></g></g></g></g></svg>